<?xml version="1.0" encoding="UTF-8"?>
<!-- Generator: visioncortex VTracer 0.6.4 -->
<svg version="1.1" xmlns="http://www.w3.org/2000/svg" width="440" height="482">
<path d="M0 0 C0.9949044799804767 -0.001913452148436079 1.989808959960925 -0.003826904296872158 3.014862060546875 -0.00579833984375 C5.110822085368795 -0.0071523059355982355 7.206790721686957 -0.0035112933204146657 9.302734375 0.0048828125 C12.462438139260314 0.015524803132841214 15.621564474599353 0.004995704499599185 18.78125 -0.0078125 C34.844938835180955 -0.022453120520580683 49.42074110738611 1.04471210752898 64.7421875 6.328125 C65.90468017578121 6.723706054687497 67.06717285156253 7.119287109375001 68.264892578125 7.52685546875 C89.15375104811363 14.854398720099091 105.36119735280823 25.03226726530194 115.9921875 44.953125 C116.46438720703122 45.8258203125 116.9365869140625 46.698515625 117.423095703125 47.59765625 C126.3671875 64.41025507386071 126.3671875 64.41025507386071 126.3671875 72.265625 C127.10324218749997 72.541484375 127.839296875 72.81734375 128.59765625 73.1015625 C141.14248462033038 78.3742830280091 149.2908601635787 87.87691129641014 154.529296875 100.19091796875 C162.39783119490494 119.67425265713928 165.56515946419648 139.31402512376053 157.6943359375 159.548828125 C156.3317959562412 162.33807479745184 154.76005142692168 164.19249750776015 152.7265625 166.51953125 C147.67759031439232 173.64400926565224 148.78536004540234 181.17474099070122 149.3046875 189.453125 C149.38144590306968 191.13070929504852 149.45478279993887 192.80845322828958 149.52490234375 194.486328125 C149.75666688331148 199.74917458977663 150.05774794632833 205.00686152397296 150.3671875 210.265625 C150.7487120052577 216.93192168368157 151.12592575456216 223.5984714813651 151.4921875 230.265625 C151.5597575378418 231.49465042114258 151.5597575378418 231.49465042114258 151.62869262695313 232.74850463867188 C152.87031870117795 255.81511370113697 151.57875016632505 278.47768016999316 149.4921875 301.453125 C149.41127868652342 302.3508361816406 149.3303698730469 303.24854736328126 149.24700927734375 304.1734619140625 C148.37581573780398 313.68521017061653 147.33154690945327 323.14904483909953 145.87109375 332.58984375 C145.75464508056643 333.35193649291995 145.6381964111328 334.11402923583984 145.51821899414063 334.8992156982422 C143.0734757782326 349.99379115751276 136.6220863093754 371.19551347836165 124.3671875 381.265625 C121.15652715325865 383.53984274560844 117.8604734495537 385.45986487838456 114.3671875 387.265625 C113.61179687499998 387.6575 112.85640625000002 388.049375 112.078125 388.453125 C100.42436259503512 394.0535196539761 87.38098211421993 395.0790122758762 75.01953125 391.23046875 C63.832355317818326 387.1609069602373 54.56335257992325 381.08447556354434 48.8671875 370.328125 C43.19310666483682 357.60539726819746 42.124574650137475 341.97048130471535 44.3671875 328.265625 C43.426171874999994 328.2050390625 42.48515624999999 328.144453125 41.515625 328.08203125 C40.270390625000005 327.9982421875 39.02515625000001 327.914453125 37.7421875 327.828125 C36.512421875 327.7469140625 35.28265625 327.665703125 34.015625 327.58203125 C30.74979286718238 327.2988059793809 27.594313024345297 326.8247016167331 24.3671875 326.265625 C24.292019042968747 327.6927380371094 24.292019042968747 327.6927380371094 24.21533203125 329.148681640625 C24.02374602275441 332.7554677726763 23.824216930863855 336.36178177631757 23.62255859375 339.968017578125 C23.537134315222005 341.51445297237626 23.453726599616203 343.06100138139465 23.37255859375 344.607666015625 C21.16888132504289 386.4639311749571 21.16888132504289 386.4639311749571 7.62890625 400.00390625 C-4.100594775225005 410.12593818397363 -20.188878530819068 408.8237112015636 -34.6328125 408.265625 C-35.35662109374999 408.243388671875 -36.080429687499986 408.22115234375 -36.826171875 408.1982421875 C-51.00041774289059 407.72949861733775 -63.2057711516606 404.31693063383585 -73.3203125 393.765625 C-74.47031853496009 392.30047308045954 -75.57031558986344 390.79542379190957 -76.6328125 389.265625 C-77.3134375 388.298828125 -77.9940625 387.33203125 -78.6953125 386.3359375 C-89.00360280434545 370.2617130451259 -89.15255055743721 348.85176217717975 -89.6328125 330.265625 C-90.62796875 330.30171875 -91.623125 330.3378125 -92.6484375 330.375 C-96.75823306770774 330.26218208245507 -100.4354959911965 329.56279374009426 -104.3828125 328.515625 C-105.08164550781251 328.3337060546875 -105.78047851562499 328.151787109375 -106.50048828125 327.96435546875 C-121.85458221484211 323.87440031613374 -137.53599640729234 317.49336750409503 -145.9453125 303.140625 C-153.61122134507303 287.83004251441093 -155.75060357492237 270.1224883035789 -155.8359375 253.203125 C-155.84281585693358 252.26552841186526 -155.8496942138672 251.32793182373047 -155.85678100585938 250.36192321777344 C-155.8739218787269 247.32978398468515 -155.8802440410868 244.29781021024314 -155.8828125 241.265625 C-155.8844842529297 240.22793975830075 -155.8861560058594 239.19025451660156 -155.88787841796875 238.12112426757813 C-155.88919529001038 224.4265768449676 -155.54217358253237 210.84050404800468 -154.2578125 197.203125 C-154.19468872070314 196.53208740234376 -154.13156494140625 195.8610498046875 -154.0665283203125 195.169677734375 C-152.7429835183309 181.4967222720078 -151.17230178407442 168.27586062788654 -146.6328125 155.265625 C-146.410771484375 154.6177099609375 -146.18873046875 153.969794921875 -145.9599609375 153.30224609375 C-140.41966896003143 137.2567374850016 -134.0670580321018 125.74084860967508 -118.581298828125 117.15380859375 C-114.93168690112938 115.49019649120521 -111.11964490150146 114.7560937638633 -107.1953125 114.015625 C-105.8954541015625 113.76087402343751 -105.8954541015625 113.76087402343751 -104.5693359375 113.5009765625 C-96.53035750431629 112.03800611896565 -88.78395911586787 111.85579081261 -80.6328125 112.265625 C-80.67921875 111.53343749999999 -80.725625 110.80124999999998 -80.7734375 110.046875 C-81.7275234814099 81.42429555770278 -73.60098762851379 44.67423140757245 -54.32421875 22.625 C-39.7040864464029 7.389043090791169 -21.064959009083367 -0.091252206614854 0 0 Z " fill="#000000" transform="translate(199.6328125,36.734375)"/>
<path d="M0 0 C1.227945327758789 -0.009569778442383381 1.227945327758789 -0.009569778442383381 2.4806976318359375 -0.0193328857421875 C3.7994161224365257 -0.02100212097167997 3.7994161224365257 -0.02100212097167997 5.144775390625 -0.022705078125 C6.062713775634762 -0.02603347778320142 6.980652160644524 -0.02936187744140284 7.9264068603515625 -0.0327911376953125 C9.872319543307299 -0.03785241767057812 11.818240897792577 -0.04019970967728881 13.76416015625 -0.0400390625 C16.700428653945295 -0.04220533977512275 19.636308724850835 -0.06031316838809886 22.572509765625 -0.079345703125 C36.99319946604072 -0.12570855671928172 49.94697089735865 1.07250333841111 63.679931640625 5.770263671875 C65.23357421875 6.300310058593752 65.23357421875 6.300310058593752 66.818603515625 6.841064453125 C85.29922768469686 13.332311727464102 95.33236156822358 21.000756034829436 104.554931640625 38.457763671875 C105.804931640625 41.145263671875 105.804931640625 41.145263671875 105.804931640625 43.145263671875 C105.21816650390622 43.054384765625 104.6314013671875 42.963505859375005 104.02685546875 42.869873046875 C85.14613301476766 40.01054608558849 67.27040248599042 39.64001460327435 48.242431640625 40.957763671875 C47.18435302734375 41.02761474609375 46.12627441406249 41.09746582031249 45.0361328125 41.16943359375 C37.70525287823483 41.74777838799889 30.889674432541852 43.21729093171966 23.804931640625 45.145263671875 C22.972600097656255 45.33580322265625 22.14026855468751 45.526342773437506 21.28271484375 45.72265625 C11.928663339940556 47.880615188589275 5.889266841697236 56.167857312343685 0.867431640625 63.832763671875 C-10.357468752404202 82.55853868048135 -7.6683968834091445 106.23569073508224 -2.798095703125 126.785888671875 C1.6555122373744098 144.21085512409618 9.93776066121535 157.47647340208573 24.984619140625 167.641357421875 C30.27316083206341 170.46142466730961 35.98922708026862 171.824480951208 41.804931640625 173.145263671875 C42.580947265625014 173.329599609375 43.356962890625 173.513935546875 44.156494140625 173.703857421875 C69.89473959430802 177.99356499748882 99.20105964657967 174.678971487078 124.261962890625 167.793701171875 C127.09125051198737 167.07225455874726 129.9236913719684 166.61123378321054 132.804931640625 166.145263671875 C136.85755535844726 237.7435583271468 136.85755535844726 237.7435583271468 133.804931640625 270.145263671875 C133.6857994492441 271.5058422081524 133.56780330235904 272.8665206812273 133.450927734375 274.227294921875 C130.12547468134147 312.59750810566817 130.12547468134147 312.59750810566817 123.804931640625 328.145263671875 C123.55678710937502 328.7944677734375 123.30864257812499 329.443671875 123.052978515625 330.112548828125 C119.90227687955587 338.1773767157228 117.31654836933404 344.2336308184652 109.117431640625 348.082763671875 C99.1258080428355 351.8041947364409 90.77709842042509 351.95281826052593 80.804931640625 348.145263671875 C75.11783095129863 345.3017133272118 73.05604404172362 341.8695387073014 70.804931640625 336.145263671875 C70.0963373371718 333.24115073136966 69.75477555950363 330.3699987716908 69.492431640625 327.395263671875 C69.41395996093752 326.6168310546875 69.33548828125004 325.8383984375 69.254638671875 325.036376953125 C68.68513031947862 318.65867256335594 68.88437382703364 312.4896486033833 69.804931640625 306.145263671875 C70.771728515625 305.865537109375 71.738525390625 305.585810546875 72.734619140625 305.297607421875 C81.98994057719938 302.4935057901842 89.82537570849286 299.12481960400714 96.804931640625 292.145263671875 C96.97180611719727 289.56172148698886 96.97180611719727 289.56172148698886 96.804931640625 287.145263671875 C94.80538418051083 287.10272010889383 92.8045152775519 287.10445584254995 90.804931640625 287.145263671875 C90.47493164062496 287.475263671875 90.14493164062503 287.805263671875 89.804931640625 288.145263671875 C70.06502081247811 292.7919437121776 49.70817498647318 289.5518894542733 29.984619140625 286.567138671875 C20.46103441747104 285.22229249455654 20.46103441747104 285.22229249455654 11.617431640625 288.020263671875 C9.04754175944322 291.0332380153295 8.641457396017074 292.88146877393524 8.340087890625 296.754638671875 C8.2635498046875 297.7223217773437 8.18701171875 298.6900048828125 8.108154296875 299.68701171875 C7.988996582031234 301.27509643554686 7.988996582031234 301.27509643554686 7.867431640625 302.895263671875 C7.780258789062486 303.99330322265627 7.693085937500001 305.0913427734375 7.603271484375 306.22265625 C7.1177335670677735 312.4738475799436 6.706820909804065 318.7240490431544 6.371337890625 324.985107421875 C6.297136230468766 326.29189453125 6.222934570312503 327.598681640625 6.146484375 328.945068359375 C6.0060003206627925 331.46712933036247 5.878427553073493 333.98995536178086 5.76611328125 336.513427734375 C4.581750792685 357.368444519815 4.581750792685 357.368444519815 -1.195068359375 363.145263671875 C-9.004031515474765 366.70724686588545 -16.605877117288713 366.5143160937959 -25.005126953125 366.218994140625 C-27.096171927032827 366.1485932953496 -29.18514344386716 366.11570364513625 -31.277099609375 366.086669921875 C-39.036937056425785 365.82722246923805 -46.078639327316694 365.3181419458118 -52.195068359375 360.145263671875 C-69.12402350096811 339.5221342583973 -65.26642565406067 301.9031663005912 -62.994873046875 276.8759765625 C-61.61319631041647 261.51820626952144 -61.0605141278283 246.15288519024693 -61.05624771118164 230.73762702941895 C-61.05301229259169 226.2713231918076 -61.02821680338033 221.8051107223289 -61.006103515625 217.3388671875 C-61.00169439315795 216.40104746818542 -60.997285270690924 215.46322774887085 -60.99274253845215 214.4969892501831 C-60.82694240044245 180.834460206672 -60.037129043406196 147.3013020651488 -57.820068359375 113.707763671875 C-57.713854199036405 112.06455831907658 -57.6076930579257 110.42134953827644 -57.5015869140625 108.77813720703125 C-56.174500558522 88.45149632665613 -54.71047982792004 68.23647859274104 -49.507568359375 48.457763671875 C-49.255556640625 47.498620605468744 -49.003544921875005 46.5394775390625 -48.743896484375 45.55126953125 C-45.50457009794104 33.875059029305675 -40.44727054022522 22.19606606377525 -32.195068359375 13.145263671875 C-31.75678710937501 12.619326171875002 -31.318505859374994 12.093388671875005 -30.866943359375 11.551513671875 C-24.046197562901284 4.515375902881047 -9.731934850795568 0.05182496804184211 0 0 Z " fill="#770A0A" transform="translate(195.195068359375,57.854736328125)"/>
<path d="M0 0 C1.227945327758789 -0.009569778442383381 1.227945327758789 -0.009569778442383381 2.4806976318359375 -0.0193328857421875 C3.7994161224365257 -0.02100212097167997 3.7994161224365257 -0.02100212097167997 5.144775390625 -0.022705078125 C6.062713775634762 -0.02603347778320142 6.980652160644524 -0.02936187744140284 7.9264068603515625 -0.0327911376953125 C9.872319543307299 -0.03785241767057812 11.818240897792577 -0.04019970967728881 13.76416015625 -0.0400390625 C16.700428653945295 -0.04220533977512275 19.636308724850835 -0.06031316838809886 22.572509765625 -0.079345703125 C36.99319946604072 -0.12570855671928172 49.946970897358625 1.07250333841111 63.679931640625 5.770263671875 C64.715693359375 6.123627929687501 65.75145507812499 6.476992187500002 66.818603515625 6.841064453125 C85.29922768469686 13.332311727464102 95.33236156822358 21.000756034829436 104.554931640625 38.457763671875 C105.804931640625 41.145263671875 105.804931640625 41.145263671875 105.804931640625 43.145263671875 C105.21816650390622 43.054384765625 104.6314013671875 42.963505859375005 104.02685546875 42.869873046875 C85.14613301476766 40.01054608558849 67.27040248599036 39.64001460327435 48.242431640625 40.957763671875 C47.18435302734375 41.02761474609375 46.12627441406249 41.09746582031249 45.0361328125 41.16943359375 C37.7052528782348 41.74777838799889 30.889674432541852 43.21729093171966 23.804931640625 45.145263671875 C22.972600097656255 45.33580322265625 22.14026855468751 45.526342773437506 21.28271484375 45.72265625 C11.928663339940556 47.880615188589275 5.889266841697236 56.1678573123437 0.867431640625 63.832763671875 C-10.357468752404202 82.55853868048135 -7.6683968834091445 106.23569073508224 -2.798095703125 126.785888671875 C1.6555122373744098 144.2108551240962 9.93776066121535 157.47647340208573 24.984619140625 167.641357421875 C30.27316083206341 170.46142466730961 35.98922708026862 171.824480951208 41.804931640625 173.145263671875 C42.580947265625014 173.329599609375 43.356962890625 173.513935546875 44.156494140625 173.703857421875 C65.85710759920278 177.32062633163795 89.17181215553268 174.68521284330527 110.656494140625 170.828857421875 C115.34506062809078 170.00072012705314 120.06499436788363 169.5664420031774 124.804931640625 169.145263671875 C117.68560081606711 197.86223301029108 117.68560081606711 197.86223301029108 114.353271484375 210.113037109375 C113.85038718302303 211.97679887449254 113.3676605315647 213.84596917690112 112.886962890625 215.715576171875 C109.5993648032267 227.63132469825302 104.36245970556877 238.30728901740065 93.961181640625 245.403076171875 C77.96348248437812 253.7792299753816 54.244584683477626 254.17712498203377 37.242431640625 248.895263671875 C34.730739753701755 248.04278348501566 32.27791374588634 247.11039809078352 29.804931640625 246.145263671875 C28.40500976562501 245.679267578125 28.40500976562501 245.679267578125 26.976806640625 245.203857421875 C11.993306285638653 239.95020871250085 0.7507253797379008 228.1457863796835 -10.195068359375 217.145263671875 C-10.815107421874984 216.53682617187496 -11.435146484374997 215.92838867187504 -12.073974609375 215.301513671875 C-30.975967946612997 196.70651326586824 -44.38906058240707 171.81645508243565 -50.195068359375 146.145263671875 C-50.566318359375 144.613857421875 -50.566318359375 144.613857421875 -50.945068359375 143.051513671875 C-52.65978324787872 135.14477279710786 -52.42935190423043 127.18497914128892 -52.195068359375 119.145263671875 C-52.17573242187501 118.3378271484375 -52.156396484374994 117.530390625 -52.136474609375 116.698486328125 C-51.88315762066617 107.03332563393332 -51.22800874307498 97.8898905628617 -48.960693359375 88.453857421875 C-47.34141699200799 81.45627026289617 -46.16384392691714 74.3395231123148 -46.234130859375 67.149169921875 C-46.29640735050165 60.52477057922212 -45.466797580198346 53.972952352441354 -44.757568359375 47.395263671875 C-44.622861328125 46.094599609374995 -44.488154296874995 44.79393554687499 -44.349365234375 43.453857421875 C-42.86427651310623 29.385358413562926 -39.52767418147769 18.660978490017726 -28.288818359375 9.121826171875 C-20.41364346905533 4.090464436392999 -9.398303888047963 0.050048300375316046 0 0 Z " fill="#C71110" transform="translate(195.195068359375,57.854736328125)"/>
<path d="M0 0 C8.274939502667564 8.088286731930708 13.269198299978484 24.61884443790484 14.0078125 35.98046875 C13.738325577155706 44.678907759584035 12.111681713366806 52.59991975951726 7.9375 60.25 C7.380625000000009 61.32249999999999 6.823750000000018 62.39499999999998 6.25 63.5 C-4.736841246583822 76.56543283377533 -29.03484524468405 77.4436751678565 -44.90625 78.9140625 C-86.56895401960858 82.43564671769849 -86.56895401960858 82.43564671769849 -100.01171875 73.23046875 C-104.7364093083859 69.18171932259486 -108.7280454475945 65.0573869407132 -111.0625 59.25 C-111.3963671875 58.423710937500005 -111.73023437500001 57.59742187500001 -112.07421875 56.74609375 C-117.72126103249838 41.31644290376835 -121.52584057921442 21.037719061714796 -117.1484375 4.875 C-115.98488561247746 2.412774070274878 -114.71756606201149 0.4051261288759349 -113.0625 -1.75 C-112.66289062499999 -2.4087109374999898 -112.26328125 -3.067421875000008 -111.8515625 -3.74609375 C-107.61658993474018 -9.918887095121121 -101.02782724834572 -11.117689493708156 -94.0625 -12.75 C-89.25677826405331 -13.433700618103757 -84.47082123863714 -13.75242211872849 -79.625 -14 C-78.41779296875 -14.077343749999997 -77.21058593750001 -14.154687499999994 -75.966796875 -14.234375 C-51.9279597466944 -15.674904565741159 -20.26653100113913 -15.395605095285958 0 0 Z " fill="#4A646D" transform="translate(327.0625,132.75)"/>
<path d="M0 0 C0.10773574200842972 7.54999723207402 -0.07337109496124583 14.992467011639576 -0.6859130859375 22.517822265625 C-1.8243491748294787 36.53380322019251 -2.2261545327503143 50.50389413362859 -2.34375 64.5625 C-2.3518569946289034 65.50932647705076 -2.359963989257807 66.45615295410158 -2.368316650390625 67.43167114257813 C-2.4241192485880703 74.28771876832343 -2.463766461193572 81.14382493324248 -2.5 88 C-2.6325658970308865 113.08435631366541 -2.9267670183713506 137.9898157369978 -5 163 C-5.189734985768553 165.43737721734976 -5.37791702899419 167.87487588021304 -5.564453125 170.3125 C-5.647960205078135 171.40175781250002 -5.731467285156242 172.491015625 -5.8175048828125 173.61328125 C-5.877728271484372 174.40089843750002 -5.937951660156244 175.18851562500004 -6 176 C-18.537977540426184 175.5434349915251 -32.05623874403328 172.0108056611195 -42 164 C-53.57666616050997 149.376842744619 -52.379037418634084 125.38448479398659 -52.3125 107.6875 C-52.311674194335936 106.75734069824216 -52.31084838867187 105.82718139648438 -52.30999755859375 104.86883544921875 C-52.258339226128996 79.39257719336604 -52.08408308157965 51.41620994702447 -43.625 27.1875 C-43.188007812500004 25.873623046874997 -43.188007812500004 25.873623046874997 -42.7421875 24.533203125 C-37.39463131609871 8.830620383237203 -37.39463131609871 8.830620383237203 -29.8125 4.25390625 C-20.409336597614043 0.06166256643626866 -10.138583787499996 -0.41205964353733293 0 0 Z " fill="#770A0A" transform="translate(117,170)"/>
<path d="M0 0 C7.308637696772735 7.125003583788498 9.475551796498905 17.70479299871647 11.9375 27.25 C8.504387251898208 30.324950858350718 4.901385973757385 31.299881644453365 0.5 32.25 C-0.2657031250000159 32.4180615234375 -1.0314062500000318 32.586123046875 -1.8203125 32.75927734375 C-12.989711586348562 35.03861401776649 -24.37989057465768 35.87134885736472 -35.71533203125 36.9208984375 C-39.41770512591853 37.28492461777813 -43.101322920445966 37.7414041753577 -46.790283203125 38.219482421875 C-63.10231446802686 40.29025072630239 -78.1265339962649 38.2457682173268 -93.0625 31.375 C-93.78091064453125 31.04749755859376 -94.4993212890625 30.719995117187494 -95.239501953125 30.382568359375 C-100.82255755250983 27.68999826404101 -104.58491378598615 24.46637932102078 -108.0625 19.25 C-108.96034325165746 15.315060572222592 -109.41323589969707 11.312354229543331 -109.9375 7.3125 C-110.105078125 6.21486328124999 -110.27265625000001 5.117226562500008 -110.4453125 3.986328125 C-110.654140625 2.4017480468750136 -110.654140625 2.4017480468750136 -110.8671875 0.78515625 C-111.00108886718749 -0.1802709960937534 -111.13499023437501 -1.1456982421875068 -111.27294921875 -2.140380859375 C-111.0625 -4.75 -111.0625 -4.75 -109.440185546875 -6.960205078125 C-101.17837018861039 -13.179259230649677 -89.56539859811545 -13.49213503703082 -79.625 -14 C-78.41779296875 -14.077343749999997 -77.21058593750001 -14.154687499999994 -75.966796875 -14.234375 C-51.9279597466944 -15.674904565741159 -20.26653100113913 -15.395605095285958 0 0 Z " fill="#93C8DA" transform="translate(327.0625,132.75)"/>
<path d="M0 0 C1.498358383394418 0.8633501860777812 2.9882530532782994 1.7440305111946088 4.4375 2.6875 C4.4375 3.3474999999999966 4.4375 4.007499999999993 4.4375 4.6875 C5.427500000000009 5.0175000000000125 6.417500000000018 5.347499999999997 7.4375 5.6875 C9.22792951475867 8.731230175089706 9.43728905253306 10.69952400561499 9.375 14.25 C8.255565431527202 18.35459341773347 6.97259164983268 19.445734563520745 3.4375 21.6875 C-3.399992398830193 25.106246199415125 -14.738513481638336 22.35530696684026 -22.125 21.6875 C-28.090204053750824 21.150159647014533 -33.97935744105064 20.62464536856396 -39.97265625 20.73046875 C-46.75398465308899 20.79995096970015 -52.92241704989925 18.94122934764698 -58.125 14.5 C-60.62140887732485 9.615721761755736 -61.39483892479788 4.867093977627377 -61.8125 -0.5625 C-60.019832760031676 -4.506367927930299 -57.77451889913388 -5.6888354634743195 -53.8515625 -7.390625 C-37.4787917415656 -11.979667635380665 -14.903370494206229 -7.4252295598353015 0 0 Z " fill="#FEFEFE" transform="translate(313.5625,131.3125)"/>
<path d="M0 0 C0.3829787234042499 25.2340425531915 0.3829787234042499 25.2340425531915 -2 30 C-3.428925781250001 29.762167968749992 -3.428925781250001 29.762167968749992 -4.88671875 29.51953125 C-16.98328385492472 27.80795393055476 -30.628548758489046 26.99365388566389 -40.921875 34.37890625 C-42.785187136888865 35.841307650620706 -42.785187136888865 35.841307650620706 -45 38 C-46.113426048499264 34.69795507727309 -45.89868799369644 32.89948108141513 -44.671875 29.6640625 C-44.3663671875 28.846796874999995 -44.06085937500001 28.02953124999999 -43.74609375 27.1875 C-43.417382812499994 26.341875000000016 -43.088671875 25.496250000000003 -42.75 24.625 C-42.28013671875 23.3681640625 -42.28013671875 23.3681640625 -41.80078125 22.0859375 C-38.43930843402492 13.214996790621797 -35.93552993768827 7.155205279665722 -27 3 C-18.077191538274377 0.3440469796201455 -9.270033234001446 -0.4660910564581684 0 0 Z " fill="#C71110" transform="translate(117,170)"/>
</svg>
